<svg width="212" height="189" viewBox="0 0 212 189" fill="none" xmlns="http://www.w3.org/2000/svg">
<g clip-path="url(#clip0_887_224)">
<path d="M174.305 61.1961C172.049 60.4212 169.774 59.7034 167.482 59.0433C167.867 57.4683 168.221 55.9124 168.536 54.3838C173.702 29.2824 170.325 9.06025 158.79 2.40214C147.73 -3.98075 129.643 2.67487 111.376 18.5882C109.576 20.1593 107.816 21.7757 106.097 23.4359C104.947 22.3319 103.776 21.2494 102.585 20.1889C83.4406 3.1739 64.2514 -3.99733 52.7289 2.67984C41.6793 9.08263 38.4074 28.0929 43.0581 51.882C43.5208 54.2381 44.0433 56.582 44.625 58.9115C41.9087 59.6841 39.2877 60.5064 36.7793 61.3817C14.3339 69.2153 0 81.4912 0 94.2246C0 107.376 15.3881 120.567 38.766 128.565C40.6613 129.211 42.5724 129.81 44.4974 130.36C43.8722 132.869 43.3172 135.395 42.8329 137.935C38.3991 161.311 41.8615 179.872 52.8813 186.234C64.263 192.805 83.3661 186.052 101.967 169.776C103.475 168.452 104.95 167.092 106.39 165.695C108.252 167.492 110.163 169.238 112.121 170.929C130.139 186.448 147.934 192.715 158.943 186.336C170.314 179.746 174.01 159.807 169.212 135.548C168.834 133.647 168.41 131.756 167.94 129.876C169.282 129.478 170.599 129.069 171.882 128.643C196.186 120.583 211.999 107.552 211.999 94.2246C211.999 81.4448 197.202 69.086 174.305 61.1961ZM169.034 120.038C167.875 120.422 166.686 120.792 165.473 121.153C162.79 112.65 159.17 103.61 154.739 94.2686C158.967 85.1502 162.448 76.2249 165.056 67.7779C167.225 68.4062 169.329 69.0686 171.358 69.7674C190.976 76.5283 202.943 86.5229 202.943 94.2246C202.943 102.428 190.019 113.077 169.034 120.038ZM160.328 137.308C162.449 148.035 162.751 157.734 161.346 165.316C160.084 172.129 157.545 176.671 154.405 178.49C147.724 182.362 133.437 177.33 118.028 164.057C116.206 162.485 114.429 160.862 112.697 159.191C118.671 152.651 124.641 145.049 130.468 136.605C140.717 135.695 150.399 134.206 159.18 132.175C159.603 133.877 159.985 135.588 160.328 137.308ZM72.2751 177.822C65.7478 180.128 60.5489 180.195 57.4062 178.381C50.7191 174.521 47.9391 159.617 51.7311 139.626C52.1818 137.264 52.6979 134.915 53.2788 132.581C61.9625 134.504 71.5745 135.887 81.8473 136.721C87.7137 144.983 93.8559 152.577 100.046 159.227C98.7306 160.501 97.3839 161.742 96.0074 162.95C87.7816 170.147 79.5394 175.253 72.2751 177.822ZM41.6959 119.988C31.3585 116.45 22.8214 111.854 16.9699 106.838C11.7113 102.331 9.05716 97.8554 9.05716 94.2246C9.05716 86.4972 20.5656 76.641 39.7606 69.9423C42.0901 69.1299 44.5281 68.3631 47.058 67.6436C49.7113 76.2812 53.191 85.3126 57.3904 94.4451C53.1364 103.713 49.6069 112.888 46.928 121.628C45.1708 121.124 43.4262 120.577 41.6959 119.988ZM51.9464 50.1404C47.9623 29.7591 50.6081 14.3846 57.267 10.5258C64.3591 6.41591 80.042 12.2757 96.5722 26.968C97.6501 27.9282 98.7105 28.9079 99.753 29.9066C93.5934 36.5274 87.5075 44.065 81.6933 52.2783C71.7227 53.2034 62.1786 54.6888 53.4039 56.6791C52.8632 54.5124 52.3773 52.3316 51.9464 50.1404ZM143.393 72.7441C141.321 69.1605 139.171 65.622 136.946 62.1311C143.71 62.9874 150.191 64.1239 156.277 65.5132C154.45 71.3755 152.173 77.5039 149.492 83.7874C147.533 80.066 145.5 76.3842 143.393 72.7441ZM106.101 36.3857C110.278 40.9159 114.462 45.9733 118.577 51.4609C110.23 51.0663 101.868 51.0646 93.5205 51.4559C97.6396 46.0189 101.859 40.9681 106.101 36.3857ZM68.5701 72.8063C66.4901 76.4171 64.4946 80.0759 62.5852 83.7799C59.9485 77.5189 57.6919 71.3623 55.8493 65.4171C61.8979 64.0626 68.3481 62.9551 75.0692 62.1145C72.8195 65.6268 70.6525 69.1922 68.5701 72.8063ZM75.2621 126.98C68.3183 126.204 61.7712 125.154 55.7243 123.835C57.5958 117.784 59.9021 111.497 62.596 105.101C64.513 108.808 66.5168 112.469 68.6057 116.082C70.7538 119.795 72.9782 123.433 75.2621 126.98ZM106.351 152.702C102.058 148.066 97.7771 142.938 93.5959 137.422C97.6553 137.581 101.793 137.662 105.999 137.662C110.321 137.662 114.592 137.565 118.796 137.378C114.668 142.993 110.5 148.129 106.351 152.702ZM149.578 104.775C152.412 111.24 154.8 117.495 156.696 123.443C150.55 124.847 143.913 125.977 136.921 126.817C139.161 123.261 141.331 119.661 143.429 116.019C145.562 112.317 147.612 108.568 149.578 104.775ZM135.584 111.49C132.373 117.074 128.981 122.552 125.414 127.916C118.953 128.374 112.477 128.601 105.999 128.598C99.4018 128.598 92.9847 128.392 86.8053 127.991C83.1452 122.64 79.6886 117.152 76.443 111.54C73.2127 105.957 70.1961 100.253 67.3983 94.441C70.189 88.6275 73.1972 82.9211 76.4165 77.334L76.4157 77.3348C79.6338 71.7463 83.0627 66.282 86.6952 60.954C92.9996 60.4765 99.4648 60.2279 105.999 60.2279C112.562 60.2279 119.037 60.479 125.339 60.9598C128.935 66.2799 132.342 71.7253 135.554 77.2859C138.784 82.8608 141.832 88.5393 144.693 94.3125C141.862 100.145 138.823 105.874 135.584 111.49ZM154.267 10.2556C161.365 14.3539 164.126 30.8806 159.666 52.5535C159.381 53.9361 159.061 55.3445 158.714 56.7728C149.917 54.7402 140.367 53.2291 130.367 52.2899C124.542 43.9863 118.506 36.4371 112.446 29.9016C114.034 28.3693 115.66 26.8768 117.322 25.4253C132.974 11.7916 147.602 6.40845 154.267 10.2556ZM105.999 75.2749C116.455 75.2749 124.93 83.7592 124.93 94.2246C124.93 104.69 116.455 113.174 105.999 113.174C95.5445 113.174 87.0686 104.69 87.0686 94.2246C87.0686 83.7592 95.5445 75.2749 105.999 75.2749Z" fill="#00D8FF"/>
</g>
<defs>
<clipPath id="clip0_887_224">
<rect width="212" height="189" fill="white"/>
</clipPath>
</defs>
</svg>
