<svg width="206" height="123" viewBox="0 0 206 123" fill="none" xmlns="http://www.w3.org/2000/svg">
<path fill-rule="evenodd" clip-rule="evenodd" d="M103.002 0C75.5329 0 58.3693 13.6676 51.499 41.0027C61.8004 27.3351 73.8174 22.2108 87.5499 25.6257C95.3849 27.5736 100.988 33.2313 107.184 39.4953C117.284 49.6955 128.974 61.5 154.501 61.5C181.966 61.5 199.134 47.8324 206 20.5013C195.703 34.1689 183.686 39.2932 169.953 35.8743C162.114 33.9264 156.511 28.2687 150.315 22.0087C140.215 11.8005 128.53 0 103.002 0ZM51.499 61.5C24.0339 61.5 6.86626 75.1676 0 102.503C10.3014 88.8351 22.3184 83.7108 36.0469 87.1257C43.886 89.0736 49.4888 94.7313 55.685 100.995C65.7845 111.195 77.4705 123 103.002 123C130.467 123 147.635 109.336 154.501 82.0013C144.2 95.6689 132.183 100.793 118.45 97.3784C110.615 95.4264 105.012 89.7687 98.8161 83.5087C88.7165 73.3086 77.0265 61.5 51.499 61.5Z" fill="#38BDF8"/>
</svg>
